<svg xmlns="http://www.w3.org/2000/svg" xmlns:xlink="http://www.w3.org/1999/xlink" width="1009.54" height="717.96"><style><![CDATA[.B{opacity:.1}.C{fill:#35323e}.D{fill:#6c63ff}.E{fill:#efb7b9}.F{fill:#444053}.G{fill:#3f3d56}.H{fill:#ff6484}.I{fill:#464353}]]></style><defs><linearGradient id="A" x1="554.8" y1="808.98" x2="554.8" y2="548.41" gradientUnits="userSpaceOnUse"><stop offset="0" stop-color="gray" stop-opacity=".25"/><stop offset=".54" stop-color="gray" stop-opacity=".12"/><stop offset="1" stop-color="gray" stop-opacity=".1"/></linearGradient><path id="B" d="M483.55 598.13a79.17 79.17 0 0 0-5.27 17.85l-1.36 8.15s.68 3.57 0 4.93-2 3.57-2 3.57 1 8.33 0 9.18 0 5.94 0 5.94l-3.4 17.17-4.75 22.06c-4.6 3.74-10.7-1-10.7-1l1.35-14.45s2-25.32 1.2-26.34.34-4.24.34-4.24 1.2-3.06.34-4.25.17-3.74.17-3.74-.34-10.37.68-12.75 0-17.1 0-17.1l-.43-4.58-.23-2.54v-.25l-.4 2.6c-.75 4.8-2.35 14.73-3 16.78a21.15 21.15 0 0 1-1.75 4.24s.9 5.1 0 6.46a3.16 3.16 0 0 0-.13 2.89s.85 4.25-1.7 6 0 2.55 0 2.55l-2.55 5.78a7.49 7.49 0 0 0 0 4.07l-1.36 13.77a50 50 0 0 0-1 9.69c.17 3.9-1.53 12.9-1.53 12.9s-13.08 0-15.1-1.53 3.38-16.48 3.38-16.48l1.2-26.85c-.34-.68 0-5.78 1.2-6.8s0-3.06 0-3.06-.34-4.08 0-5.1a18.45 18.45 0 0 0-.06-4.42c0 0-1.13-8.32-1.3-13.08s-1-15.47-1-15.47.88-6.6 1-9.77a11.35 11.35 0 0 1 1.21-4 36.59 36.59 0 0 1 2.52-4.45c0 0 40.28-11.9 42-10.7.44.3 1.1 2.43 1.74 5.54 1.7 8.67 3.47 24.82.72 30.82z"/></defs><path d="M586.55 111.4c-64.72-2.25-126.36-23.14-185.22-46S284.17 17.2 221 5.1c-40.63-7.8-87.1-8.9-119.83 12.88-31.5 21-41.7 57.15-47.16 90.73-4.12 25.26-6.54 51.84 4.74 75.5 7.84 16.42 21.74 30.22 31.36 45.95 33.47 54.72 9.8 122.2-26.45 175.63-17 25.07-36.75 49-49.88 75.66s-19.2 57.25-7.7 84.47c11.38 27 38.5 47.24 67.9 61.5 59.7 28.94 130 37.23 198.6 41.92 151.83 10.4 304.46 5.9 456.7 1.4 56.34-1.67 112.92-3.36 168.34-12.07 30.78-4.84 62.55-12.52 84.9-31 28.36-23.53 35.4-63.38 16.38-92.88-31.88-49.5-120-61.78-142.3-114.9-12.26-29.23.33-61.8 18.16-88.9 38.24-58.16 102.33-109.2 105.7-175.67 2.32-45.67-28.5-91.4-76.13-113-49.93-22.65-119.18-19.8-156 17.7-37.95 38.56-104.6 53.4-161.76 51.43z" class="B D"/><g opacity=".2"><g class="G"><path d="M248.96 627.27a24.22 24.22 0 0 1 1.5 3.57q-12 4.53-24 9.5l-.5-.9a20.44 20.44 0 0 1-2.49-10.45c.2-4.7 2.3-8.73 6-10.68s8.2-1.4 12.2 1a20.64 20.64 0 0 1 7.29 7.97z"/><ellipse cx="322.94" cy="705.95" rx="13.02" ry="17.05" transform="matrix(.884255 -.467004 .467004 .884255 -387.52 141.49)"/><ellipse cx="313.21" cy="687.53" rx="13.02" ry="17.05" transform="matrix(.884255 -.467004 .467004 .884255 -380.04 134.81)"/><ellipse cx="303.48" cy="669.1" rx="13.02" ry="17.05" transform="matrix(.884255 -.467004 .467004 .884255 -372.56 128.14)"/><ellipse cx="293.75" cy="650.68" rx="13.02" ry="17.05" transform="matrix(.884255 -.467004 .467004 .884255 -365.09 121.46)"/></g><path d="M88.84 456.36a63.91 63.91 0 0 1-7.62-4l27.63-21-32.6 17.53a62.46 62.46 0 0 1-24.13-43.15l55.92-.4-56.2-8.35a62.38 62.38 0 0 1 100.446-47.03 62.38 62.38 0 0 1 23.244 60.65 62.05 62.05 0 0 1 11.6 6.74l-28.5 41.14 34.45-36.17a62.46 62.46 0 0 1 18.46 56.49c29.734 13.217 44.314 47.07 33.49 77.755s-43.42 47.896-74.864 39.53-51.178-39.497-45.325-71.505c-26.294-11.703-41.168-39.877-36-68.2z" class="D"/><path d="M205.35 438.44a62.12 62.12 0 0 1 6.21 40.33c29.734 13.217 44.314 47.07 33.49 77.755s-43.42 47.896-74.864 39.53-51.178-39.497-45.325-71.505c-12.35-5.48 77.22-92.3 80.5-86.1z" class="B"/></g><g opacity=".2"><g class="G"><path d="M691.54 496.75a31.77 31.77 0 0 0-1.38 5.2q17.42 3.9 34.85 8.5l.53-1.35a28.54 28.54 0 0 0 1.39-14.87c-1.2-6.4-4.82-11.56-10.3-13.55s-11.56-.37-16.58 3.76a28.59 28.59 0 0 0-8.5 12.32z"/><ellipse cx="813.65" cy="566.75" rx="23.67" ry="18.08" transform="matrix(.341364 -.939931 .939931 .341364 -92.05 1047.02)"/><ellipse cx="823.53" cy="539.55" rx="23.67" ry="18.08" transform="matrix(.34 -.94 .94 .34 -59.98 1038.39)"/><ellipse cx="833.41" cy="512.36" rx="23.67" ry="18.08" transform="matrix(.341364 -.939931 .939931 .341364 -27.92 1029.77)"/><ellipse cx="843.28" cy="485.17" rx="23.67" ry="18.08" transform="matrix(.341364 -.939931 .939931 .341364 4.14 1021.14)"/></g><path d="M879.26 231.17a86.19 86.19 0 0 0 9.72-7l-42-23.55 48.17 17.9a86.75 86.75 0 0 0 25-63.94l-77 10.08 75.7-22.22c-5.67-31.922-28.695-58.005-59.667-67.594S794.488 73.768 771.77 96.9s-30.612 57.017-20.46 87.81a87 87 0 0 0-14.67 11.47l47 51.17-54.27-43.2a86.66 86.66 0 0 0-14.6 81.22c-38.36 23.85-51.95 73.172-31.22 113.302s68.818 57.592 110.467 40.113 62.872-64.03 48.753-106.935c33.952-21.104 49.058-62.697 36.56-100.67z" class="D"/><path d="M715.6 228.7a86.28 86.28 0 0 0-.86 56.67c-38.36 23.85-51.95 73.172-31.22 113.302s68.818 57.592 110.467 40.113 62.872-64.03 48.753-106.935c15.9-9.86-123.82-112.28-127.14-103.15z" class="B"/></g><ellipse cx="180.47" cy="642.47" rx="67.3" ry="12.94" class="D"/><g class="G"><ellipse cx="179.34" cy="636.97" rx="7.84" ry="10.26"/><ellipse cx="179.34" cy="624.43" rx="7.84" ry="10.26"/><ellipse cx="179.34" cy="611.89" rx="7.84" ry="10.26"/><ellipse cx="179.34" cy="599.36" rx="7.84" ry="10.26"/><ellipse cx="179.34" cy="586.82" rx="7.84" ry="10.26"/><ellipse cx="179.34" cy="574.28" rx="7.84" ry="10.26"/><ellipse cx="179.34" cy="561.75" rx="7.84" ry="10.26"/></g><path d="M208.68 475.98a36.86 36.86 0 0 0 2.91-4.3L191 468.3l22.26.17a37.57 37.57 0 0 0 .72-29.74l-29.87 15.5 27.55-20.24a37.54 37.54 0 0 0-66.666 3.194 37.54 37.54 0 0 0 4.666 38.806 37.45 37.45 0 0 0-4.29 6.84l26.73 13.9-28.5-9.57a37.55 37.55 0 0 0 6.06 35.25c-12.1 15.386-10.344 37.488 4.035 50.77s36.55 13.28 50.93 0 16.136-35.383 4.035-50.77c10.708-13.617 10.708-32.793 0-46.4z" class="D"/><path d="M141.64 499.15a37.34 37.34 0 0 0 8 23.21c-12.1 15.386-10.344 37.488 4.035 50.77s36.55 13.28 50.93 0 16.136-35.383 4.035-50.77c5.07-6.38-67-27.38-67-23.2z" class="B"/><rect x="268.41" y="178.37" width="483.61" height="104.35" rx="7.42" class="C"/><path d="M309.34 52.15s6.87 186.83-5.3 208.7h411.74s-17.5-143.7 0-208.7z" fill="#fff"/><path d="M309.34 52.15s6.87 186.83-5.3 208.7h411.74s-17.5-143.7 0-208.7z" opacity=".03"/><path d="M351.5 252.9h301.8v37.5H351.5z" class="C"/><path d="M787.67 694.2H228.3a29.82 29.82 0 0 1-29.64-33.12l11.44-103.1q1.13-10.28 1.63-20.6l2.15-69.9q.74-23.7 3.2-47.26 1.28-12.22 3-24.4l14.7-102.48c3.87-26.517 26.602-46.183 53.4-46.2h22.34a52.5 52.5 0 0 1 31.41 10.57c23.14 17.27 88.88 29.73 166.38 29.73s143.25-12.46 166.44-29.77a52.5 52.5 0 0 1 31.41-10.57h36.2c15.702 0 29.137 11.276 31.86 26.74l19.75 112q3 17.08 5.1 34.3 3.48 28.63 4.37 57.5l2 64.95a365.4 365.4 0 0 0 3.51 40.47l10.6 74.3a32.21 32.21 0 0 1-31.89 36.81z" class="I"/><rect x="241.55" y="434.88" width="534.22" height="229.63" rx="19.96" class="B"/><ellipse cx="275.91" cy="461.74" rx="15.31" ry="12.81" class="D"/><ellipse cx="275.91" cy="461.74" rx="15.31" ry="12.81" class="B"/><ellipse cx="275.91" cy="458.93" rx="15.31" ry="12.81" class="D"/><ellipse cx="294.03" cy="506.42" rx="15.31" ry="12.81" class="C"/><ellipse cx="294.03" cy="506.42" rx="15.31" ry="12.81" class="B"/><g class="C"><ellipse cx="294.03" cy="503.61" rx="15.31" ry="12.81"/><ellipse cx="304.03" cy="551.1" rx="15.31" ry="12.81"/></g><ellipse cx="304.03" cy="551.1" rx="15.31" ry="12.81" class="B"/><g class="C"><ellipse cx="304.03" cy="548.29" rx="15.31" ry="12.81"/><ellipse cx="265.29" cy="556.41" rx="15.31" ry="12.81"/></g><ellipse cx="265.29" cy="556.41" rx="15.31" ry="12.81" class="B"/><g class="C"><ellipse cx="265.29" cy="553.6" rx="15.31" ry="12.81"/><ellipse cx="322.77" cy="595.77" rx="15.31" ry="12.81"/></g><ellipse cx="322.77" cy="595.77" rx="15.31" ry="12.81" class="B"/><g class="C"><ellipse cx="322.77" cy="592.96" rx="15.31" ry="12.81"/><ellipse cx="271.54" cy="597.34" rx="15.31" ry="12.81"/></g><ellipse cx="271.54" cy="597.34" rx="15.31" ry="12.81" class="B"/><g class="C"><ellipse cx="271.54" cy="594.52" rx="15.31" ry="12.81"/><ellipse cx="364.95" cy="595.77" rx="15.31" ry="12.81"/></g><ellipse cx="364.95" cy="595.77" rx="15.31" ry="12.81" class="B"/><g class="C"><ellipse cx="364.95" cy="592.96" rx="15.31" ry="12.81"/><ellipse cx="409.62" cy="595.77" rx="15.31" ry="12.81"/></g><ellipse cx="409.62" cy="595.77" rx="15.31" ry="12.81" class="B"/><g class="C"><ellipse cx="409.62" cy="592.96" rx="15.31" ry="12.81"/><ellipse cx="450.86" cy="595.77" rx="15.31" ry="12.81"/></g><ellipse cx="450.86" cy="595.77" rx="15.31" ry="12.81" class="B"/><g class="C"><ellipse cx="450.86" cy="592.96" rx="15.31" ry="12.81"/><ellipse cx="496.47" cy="595.77" rx="15.31" ry="12.81"/></g><ellipse cx="496.47" cy="595.77" rx="15.31" ry="12.81" class="B"/><g class="C"><ellipse cx="496.47" cy="592.96" rx="15.31" ry="12.81"/><ellipse cx="537.71" cy="595.77" rx="15.31" ry="12.81"/></g><ellipse cx="537.71" cy="595.77" rx="15.31" ry="12.81" class="B"/><g class="C"><ellipse cx="537.71" cy="592.96" rx="15.31" ry="12.81"/><ellipse cx="578.63" cy="595.77" rx="15.31" ry="12.81"/></g><ellipse cx="578.63" cy="595.77" rx="15.31" ry="12.81" class="B"/><g class="C"><ellipse cx="578.63" cy="592.96" rx="15.31" ry="12.81"/><ellipse cx="623" cy="595.77" rx="15.31" ry="12.81"/></g><ellipse cx="623" cy="595.77" rx="15.31" ry="12.81" class="B"/><g class="C"><ellipse cx="623" cy="592.96" rx="15.31" ry="12.81"/><ellipse cx="664.55" cy="595.77" rx="15.31" ry="12.81"/></g><ellipse cx="664.55" cy="595.77" rx="15.31" ry="12.81" class="B"/><g class="C"><ellipse cx="664.55" cy="592.96" rx="15.31" ry="12.81"/><ellipse cx="710.47" cy="595.77" rx="15.31" ry="12.81"/></g><ellipse cx="710.47" cy="595.77" rx="15.31" ry="12.81" class="B"/><g class="C"><ellipse cx="710.47" cy="592.96" rx="15.31" ry="12.81"/><ellipse cx="757.65" cy="595.77" rx="15.31" ry="12.81"/></g><ellipse cx="757.65" cy="595.77" rx="15.31" ry="12.81" class="B"/><g class="C"><ellipse cx="757.65" cy="592.96" rx="15.31" ry="12.81"/><ellipse cx="346.52" cy="551.1" rx="15.31" ry="12.81"/></g><ellipse cx="346.52" cy="551.1" rx="15.31" ry="12.81" class="B"/><g class="C"><ellipse cx="346.52" cy="548.29" rx="15.31" ry="12.81"/><ellipse cx="389" cy="551.1" rx="15.31" ry="12.81"/></g><ellipse cx="389" cy="551.1" rx="15.31" ry="12.81" class="B"/><g class="C"><ellipse cx="389" cy="548.29" rx="15.31" ry="12.81"/><ellipse cx="432.74" cy="551.1" rx="15.31" ry="12.81"/></g><ellipse cx="432.74" cy="551.1" rx="15.31" ry="12.81" class="B"/><g class="C"><ellipse cx="432.74" cy="548.29" rx="15.31" ry="12.81"/><ellipse cx="474.6" cy="551.1" rx="15.31" ry="12.81"/></g><ellipse cx="474.6" cy="551.1" rx="15.31" ry="12.81" class="B"/><g class="C"><ellipse cx="474.6" cy="548.29" rx="15.31" ry="12.81"/><ellipse cx="517.4" cy="551.1" rx="15.31" ry="12.81"/></g><ellipse cx="517.4" cy="551.1" rx="15.31" ry="12.81" class="B"/><g class="C"><ellipse cx="517.4" cy="548.29" rx="15.31" ry="12.81"/><ellipse cx="558.33" cy="551.1" rx="15.31" ry="12.81"/></g><ellipse cx="558.33" cy="551.1" rx="15.31" ry="12.81" class="B"/><g class="C"><ellipse cx="558.33" cy="548.29" rx="15.31" ry="12.81"/><ellipse cx="602.69" cy="551.1" rx="15.31" ry="12.81"/></g><ellipse cx="602.69" cy="551.1" rx="15.31" ry="12.81" class="B"/><g class="C"><ellipse cx="602.69" cy="548.29" rx="15.31" ry="12.81"/><ellipse cx="644.87" cy="551.1" rx="15.31" ry="12.81"/></g><ellipse cx="644.87" cy="551.1" rx="15.31" ry="12.81" class="B"/><g class="C"><ellipse cx="644.87" cy="548.29" rx="15.31" ry="12.81"/><ellipse cx="687.98" cy="551.1" rx="15.31" ry="12.81"/></g><ellipse cx="687.98" cy="551.1" rx="15.31" ry="12.81" class="B"/><g class="C"><ellipse cx="687.98" cy="548.29" rx="15.31" ry="12.81"/><ellipse cx="731.09" cy="551.1" rx="15.31" ry="12.81"/></g><ellipse cx="731.09" cy="551.1" rx="15.31" ry="12.81" class="B"/><g class="C"><ellipse cx="731.09" cy="548.29" rx="15.31" ry="12.81"/><ellipse cx="337.14" cy="506.42" rx="15.31" ry="12.81"/></g><ellipse cx="337.14" cy="506.42" rx="15.31" ry="12.81" class="B"/><g class="C"><ellipse cx="337.14" cy="503.61" rx="15.31" ry="12.81"/><ellipse cx="380.26" cy="506.42" rx="15.31" ry="12.81"/></g><ellipse cx="380.26" cy="506.42" rx="15.31" ry="12.81" class="B"/><g class="C"><ellipse cx="380.26" cy="503.61" rx="15.31" ry="12.81"/><ellipse cx="421.81" cy="506.42" rx="15.31" ry="12.81"/></g><ellipse cx="421.81" cy="506.42" rx="15.31" ry="12.81" class="B"/><g class="C"><ellipse cx="421.81" cy="503.61" rx="15.31" ry="12.81"/><ellipse cx="463.36" cy="506.42" rx="15.31" ry="12.81"/></g><ellipse cx="463.36" cy="506.42" rx="15.31" ry="12.81" class="B"/><g class="C"><ellipse cx="463.36" cy="503.61" rx="15.31" ry="12.81"/><ellipse cx="505.22" cy="506.42" rx="15.31" ry="12.81"/></g><ellipse cx="505.22" cy="506.42" rx="15.31" ry="12.81" class="B"/><g class="C"><ellipse cx="505.22" cy="503.61" rx="15.31" ry="12.81"/><ellipse cx="546.46" cy="506.42" rx="15.31" ry="12.81"/></g><ellipse cx="546.46" cy="506.42" rx="15.31" ry="12.81" class="B"/><g class="C"><ellipse cx="546.46" cy="503.61" rx="15.31" ry="12.81"/><ellipse cx="590.19" cy="506.42" rx="15.31" ry="12.81"/></g><ellipse cx="590.19" cy="506.42" rx="15.31" ry="12.81" class="B"/><g class="C"><ellipse cx="590.19" cy="503.61" rx="15.31" ry="12.81"/><ellipse cx="631.43" cy="506.42" rx="15.31" ry="12.81"/></g><ellipse cx="631.43" cy="506.42" rx="15.31" ry="12.81" class="B"/><g class="C"><ellipse cx="631.43" cy="503.61" rx="15.31" ry="12.81"/><ellipse cx="675.48" cy="506.42" rx="15.31" ry="12.81"/></g><ellipse cx="675.48" cy="506.42" rx="15.31" ry="12.81" class="B"/><g class="C"><ellipse cx="675.48" cy="503.61" rx="15.31" ry="12.81"/><ellipse cx="718.59" cy="506.42" rx="15.31" ry="12.81"/></g><ellipse cx="718.59" cy="506.42" rx="15.31" ry="12.81" class="B"/><g class="C"><ellipse cx="718.59" cy="503.61" rx="15.31" ry="12.81"/><ellipse cx="315.9" cy="461.74" rx="15.31" ry="12.81"/></g><ellipse cx="315.9" cy="461.74" rx="15.31" ry="12.81" class="B"/><g class="C"><ellipse cx="315.9" cy="458.93" rx="15.31" ry="12.81"/><ellipse cx="358.39" cy="461.74" rx="15.31" ry="12.81"/></g><ellipse cx="358.39" cy="461.74" rx="15.31" ry="12.81" class="B"/><g class="C"><ellipse cx="358.39" cy="458.93" rx="15.31" ry="12.81"/><ellipse cx="399.31" cy="461.74" rx="15.31" ry="12.81"/></g><ellipse cx="399.31" cy="461.74" rx="15.31" ry="12.81" class="B"/><g class="C"><ellipse cx="399.31" cy="458.93" rx="15.31" ry="12.81"/><ellipse cx="441.49" cy="461.74" rx="15.31" ry="12.81"/></g><ellipse cx="441.49" cy="461.74" rx="15.31" ry="12.81" class="B"/><g class="C"><ellipse cx="441.49" cy="458.93" rx="15.31" ry="12.81"/><ellipse cx="483.04" cy="461.74" rx="15.31" ry="12.81"/></g><ellipse cx="483.04" cy="461.74" rx="15.31" ry="12.81" class="B"/><g class="C"><ellipse cx="483.04" cy="458.93" rx="15.31" ry="12.81"/><ellipse cx="525.53" cy="461.74" rx="15.31" ry="12.81"/></g><ellipse cx="525.53" cy="461.74" rx="15.31" ry="12.81" class="B"/><g class="C"><ellipse cx="525.53" cy="458.93" rx="15.31" ry="12.81"/><ellipse cx="567.08" cy="461.74" rx="15.31" ry="12.81"/></g><ellipse cx="567.08" cy="461.74" rx="15.31" ry="12.81" class="B"/><g class="C"><ellipse cx="567.08" cy="458.93" rx="15.31" ry="12.81"/><ellipse cx="609.25" cy="461.74" rx="15.31" ry="12.81"/></g><ellipse cx="609.25" cy="461.74" rx="15.31" ry="12.81" class="B"/><g class="C"><ellipse cx="609.25" cy="458.93" rx="15.31" ry="12.81"/><ellipse cx="652.68" cy="461.74" rx="15.31" ry="12.81"/></g><ellipse cx="652.68" cy="461.74" rx="15.31" ry="12.81" class="B"/><g class="C"><ellipse cx="652.68" cy="458.93" rx="15.31" ry="12.81"/><ellipse cx="695.16" cy="461.74" rx="15.31" ry="12.81"/></g><ellipse cx="695.16" cy="461.74" rx="15.31" ry="12.81" class="B"/><ellipse cx="695.16" cy="458.93" rx="15.31" ry="12.81" class="C"/><ellipse cx="736.71" cy="461.74" rx="15.31" ry="12.81" class="D"/><ellipse cx="736.71" cy="461.74" rx="15.31" ry="12.81" class="B"/><ellipse cx="736.71" cy="458.93" rx="15.31" ry="12.81" class="D"/><rect x="275.91" y="625.77" width="467.68" height="24.68" rx="9.07" class="C"/><rect x="275.91" y="625.77" width="467.68" height="24.68" rx="9.07" class="B"/><rect x="275.91" y="623.89" width="467.68" height="24.68" rx="9.07" class="C"/><path d="M679.86 331.46c0 26.4-83.56 54.67-177.77 54.67s-164-30.46-164-56.86 69.8-38.74 164-38.74 177.77 14.53 177.77 40.93z" class="B"/><g class="I"><ellipse cx="762.64" cy="228.52" rx="10.31" ry="25.46"/><ellipse cx="257.79" cy="228.52" rx="10.31" ry="25.46"/></g><path d="M265.3 222.43h497.35v7.5H265.3z" class="B"/><path d="M265.3 221.18h497.35v7.5H265.3zm256.47 9.37c-4.07-1.25-11.56 23.43-11.56 23.43H533s-7.17-22.18-11.24-23.43zm-.32 3.12a2.19 2.19 0 1 1-2.18 2.19 2.19 2.19 0 0 1 2.19-2.19zm.26 7.06c2.67.65 7.4 12.3 7.4 12.3h-15s4.94-12.97 7.66-12.3z" class="I"/><path d="M799.07 420.17h-582q1.28-12.22 3-24.4l14.7-102.48c3.87-26.517 26.602-46.183 53.4-46.2h22.34a52.5 52.5 0 0 1 31.41 10.57c23.14 17.27 88.88 29.73 166.38 29.73s143.27-12.42 166.46-29.73a52.5 52.5 0 0 1 31.41-10.57h36.2c15.702 0 29.137 11.276 31.86 26.74l19.75 112q3 17.14 5.1 34.33z" fill="#fff" opacity=".03"/><path d="M585.7 639s-11.47-21-9.53-24.38a45.62 45.62 0 0 0 3.35-8.35c0 0 4.24-2.9 4.24-4.1s3.35-3.92 5.12-5.1.88-6.82 0-7.5a15.13 15.13 0 0 1-2.28-3.07s1.22-3.4 0-4.43.18-2 0-3.07a43.5 43.5 0 0 1 0-4.77 7.72 7.72 0 0 0-4.51-3.28l-.13-.54-.76-3.18s3.66-7-2.28-10.72a11.63 11.63 0 0 0-1.32-.7v-.46a29.81 29.81 0 0 0-.87-5.39c-.3-1-.7-1.65-1.24-1.5a.82.82 0 0 0-.33.19 3.63 3.63 0 0 0-.63.75 12.78 12.78 0 0 0-1.4 3.9 22.51 22.51 0 0 0-.4 2.45 13.24 13.24 0 0 0-.68 1.52c-.72 1.87-1.57 5.12 0 7.52l4.34 6.88v.07l.08.12-.13.1v.3l.1 1.72 1 14.85a6 6 0 0 0-.9-.19 7.39 7.39 0 0 0-1.32-.09c-.86-3.38-3.23-6.54-3.65-10.07a7.55 7.55 0 0 1-.07-1.06c0-2.23.6-4.46.54-6.68a10.11 10.11 0 0 0 0-1.23v-.34a10 10 0 0 0-5.46-7.6c-1-.5-2.13-.85-3.13-1.4-2.3-1.3-3.77-3.62-5.86-5.2a6.45 6.45 0 0 0-5.61-1.22 25.62 25.62 0 0 0-2.74.57 24.63 24.63 0 0 0-6.25 2.59c-.26.16-.53.32-.78.5a3.49 3.49 0 0 0-1.26 1.47 3.9 3.9 0 0 0-.2 1.59v1.17c-.12 6.52-7.15 11.6-7.73 18v1.67c.1 2.8 1.55 5.4 1.82 8.2v.74a12.4 12.4 0 0 1-.72 3.75 10.77 10.77 0 0 0-2.54 1c-2.13 1.37-6 3.75-7.4 8.3a12.05 12.05 0 0 0-.54 3.64 76.06 76.06 0 0 1-1.19 13 25.59 25.59 0 0 1-.75 3.2.72.72 0 0 0 0 .31l-.84 11-.16 1.94-.2 2.76a18.59 18.59 0 0 0 .15.45c.1.28.23.76.34 1.27a6.93 6.93 0 0 1 .11 2.86 2 2 0 0 1-.6 1l-.07.08a8.47 8.47 0 0 0-.64 2.8c-.08.58-.14 1.2-.2 1.9-.4 4.34-.67 10.85-.82 16.23l-.2 9.5a10.75 10.75 0 0 0 2.19 1.08 4.7 4.7 0 0 0-.17.45 20.94 20.94 0 0 0-1.33 5.6c-.35 4 .77 8.47 6.37 10.77a8.9 8.9 0 0 0 1.1.37 3.47 3.47 0 0 0 2.79-.17v.7l.13 2.67c.18 4.77 1.36 13.12 1.36 13.12s.4 3.4.05 4.44 0 5.1 0 5.1 1.24 2 0 3.07-1.58 6.14-1.23 6.82a.45.45 0 0 0 0 .08c.27 1.7-1.26 26.86-1.26 26.86s-1.44 3.85-2.58 7.85-2 7.93-.93 8.68a8.5 8.5 0 0 0 3.23.87v.5a14.87 14.87 0 0 1-.71 4.23c-.5.7-1 6.07-1.25 9v.32a29.33 29.33 0 0 0-1.32 3.82c0 0-3.9 9.77-2.58 12.33a2 2 0 0 0 .49.6.74.74 0 0 0 .13.12c1.88 1.5 6.6 1.82 8.3 1.9l-.06 2.42v.17h2.23v-.06c0-.3.05-1.7.12-3.6v-1.86a15 15 0 0 0 1-5.45 23.73 23.73 0 0 1 .86-6.32 17 17 0 0 1 1.13-3.08 14.05 14.05 0 0 0-.28-6.27 4.35 4.35 0 0 0-.8-1.41 2.26 2.26 0 0 0 0-.26v-.56a23.05 23.05 0 0 1 .52-5.23.19.19 0 0 1 0-.08c0-.15.06-.28.1-.42v-.1h.72l3.84.07s1.77-9 1.6-13v-.53a50.65 50.65 0 0 1 1.07-9.19l1.4-13.8a7.39 7.39 0 0 1 0-4.1c.44-1 1.34-3 2-4.35l.63-1.33v-.1a3 3 0 0 1-.63-.32c-.58-.4-1.1-1.14.63-2.24 2.65-1.7 1.77-6 1.77-6a3.07 3.07 0 0 1 .14-2.9c.92-1.36 0-6.48 0-6.48a21.12 21.12 0 0 0 1.81-4.26c.66-2 2.32-12 3.1-16.83l.42-2.6v.52l.22 2.27v.3l.4 4.3s.82 11.3.3 15.73a.19.19 0 0 1 0 .08 4.88 4.88 0 0 1-.3 1.34c-.93 2.13-.76 10.56-.7 12.42v.38a6.58 6.58 0 0 0-.5 2.88 1.9 1.9 0 0 0 .32.86 2.16 2.16 0 0 1 .32 1.33v.6a11.35 11.35 0 0 1-.62 2.31c0 0-1 2.5-.6 3.8a1.34 1.34 0 0 0 .24.46 1.13 1.13 0 0 1 .13.49c.33 2.75-.52 14.88-1 21.5l-.35 4.4-1.4 14.5.14.1c.16.12.46.3.86.55l-.06.44c-.2 1.4-.47 3-.76 4.26a2.68 2.68 0 0 0-.07.27 3.92 3.92 0 0 0-1.5.6c-3 5.28-1.66 9.46 0 10.68a4.25 4.25 0 0 1 1 2.49l.4 5.26v.6a1.56 1.56 0 0 0 .08.48l.13 1.6.17 2.22h1.35v-2.53h.08c2.14.08 5.58.17 7.1.05h.4a.77.77 0 0 0 .24-.07c.8-.38 2.78-6 1-7.28s-2.18-4.88-2.18-4.88l-.47-1.36a2.44 2.44 0 0 1 0-.27 22.49 22.49 0 0 1 .21-4.68 37.08 37.08 0 0 0 .47-5.59v-.52a6 6 0 0 0 .91-.29h.07a6.46 6.46 0 0 0 1.52-.9l4.95-22.16.52-2.58 3-14.65s-1.05-5.1 0-6c.4-.3.5-1.62.47-3.16 0-2.68-.47-6-.47-6s1.4-2.2 2.12-3.58 0-4.94 0-4.94l1.4-8.18a77.27 77.27 0 0 1 5.48-17.91c2.86-6 1-22.27-.83-30.93l-.15-.65 3.1-1.5.43-.2 4.36-2h.1a32.13 32.13 0 0 1 3-1.13 4.36 4.36 0 0 1 .93-.19c2.5-.3-4.92-13.25-4.92-13.25zm-55.22 27.74h.73a7.5 7.5 0 0 0-.25.49 2.59 2.59 0 0 0-.14.29 16.48 16.48 0 0 0-.72 1.69l.3-2zm-2 10.64v-.06c0-.06 0-.13-.07-.2l-.12-.4c.25-.08.5-.16.77-.26v.14c0 .05-.05.38-.07.57v.53c0 .15-.08.57-.1.85l-.24-.76c-.06-.18-.1-.32-.15-.45z" transform="translate(-95.23 -91.02)" fill="url(#A)"/><path d="M486.25 482.54l-4.4 1.57-1.6-2.66-4.18-6.86c-2.2-3.57.68-9 .68-9s.5-5.44 2.38-7.14 2.38 7.14 2.38 7.14c7.47 3.4 3.47 11.38 3.47 11.38l.72 3.17z" fill="#be6f72"/><path d="M486.25 482.54l-4.4 1.57-1.6-2.66v-.23a7.7 7.7 0 0 1 5.47-1.08z" class="B"/><path d="M479.13 500.42l2.2-1.87-1.1-16.82a7 7 0 0 1 9.94 2.25 43.31 43.31 0 0 0 0 4.76c.17 1-1.2 2 0 3s0 4.42 0 4.42a15.34 15.34 0 0 0 2.19 3.06c.85.68 1.7 6.3 0 7.48s-4.93 3.9-4.93 5.1-4.07 4.07-4.07 4.07l-3.6-4.74z" class="D"/><path d="M431.38 602.55c-8.24-3.5-6.4-12-4.86-16.32a24.48 24.48 0 0 1 1.09-2.54l4.62-2.8s.94 2.4 1.95 5.64c2.34 7.46 5.03 19.35-2.8 16.03zm11.32 77.87a13.84 13.84 0 0 0-1.23 3.44 24.47 24.47 0 0 0-.51 5.85 22.3 22.3 0 0 0 .15 2.25l-9.18 6.3.14-1.83c.24-2.9.73-8.25 1.2-8.94a15 15 0 0 0 .69-4.22l.2-3.37s11.02-4.14 8.54.5zm21.66 4.56l-.06 3.8a39 39 0 0 1-.44 5.57 22.25 22.25 0 0 0-.21 4.66l.2 3.87s-9.37-8.85-8.42-9.55a4.43 4.43 0 0 0 .75-2c.28-1.24.54-2.86.73-4.25l.37-3z" fill="#be6f72"/><path d="M442.7 680.42a13.84 13.84 0 0 0-1.23 3.44 74.05 74.05 0 0 1-7.51-.58l.2-3.37s11.02-4.14 8.54.5zm21.66 4.56l-.06 3.8c-2.92.74-5.92-.75-7.38-1.65l.37-3z" class="B"/><use xlink:href="#B" class="D"/><use xlink:href="#B" opacity=".15"/><circle cx="458.74" cy="482.55" r="11.73" fill="#a1616a"/><path d="M482.77 567.3l-2.25 1.17s-19 9-24.46 8.5c-4.2-.4-14.88-.18-19.53-.06a36.59 36.59 0 0 1 2.52-4.45s40.28-11.9 42-10.7c.4.3 1.05 2.43 1.72 5.54z" class="B"/><path d="M450.58 501.27s-10.88 1.7-13.42 3.4-7.65 4.93-7.65 11.9a67.66 67.66 0 0 1-1.87 16.15c-.68 2 10.7 18.52 10.7 18.52l-4.08 25s16.33-.5 21.76 0 24.46-8.5 24.46-8.5 11.2-5.94 13.6-6.1-4.76-13.1-4.76-13.1-11-20.9-9.17-24.3a46.46 46.46 0 0 0 3.23-8.33l-2-17.33a6.67 6.67 0 0 0-5.61.85c-2.55 1.87-11.22.85-11.22.85z" class="D"/><path d="M432.14 531.52l-4.25 1.2-1.18 16s1.52 4.25 0 5.6-1.87 30.42-1.87 30.42a11.09 11.09 0 0 0 10.7.85c0 0-.85-3.23 1.7-15s2.53-17.6 2.53-17.6 0-14.6 1.2-17 0-8.33 0-8.33-2.38-3.23-2.2-4.42-6.6 8.3-6.6 8.3z" class="B"/><path d="M434.18 586.52a10.83 10.83 0 0 1-7.66-.29 24.48 24.48 0 0 1 1.09-2.54l4.62-2.8 1.95 5.64z" class="B"/><path d="M431.9 531.52l-4.25 1.2-1.2 16s1.53 4.25 0 5.6-1.87 30.42-1.87 30.42a11.11 11.11 0 0 0 10.71.85s-.85-3.23 1.7-15 2.54-17.6 2.54-17.6 0-14.6 1.2-17 0-8.33 0-8.33-2.37-3.23-2.2-4.42-6.63 8.3-6.63 8.3z" class="D"/><path d="M475.4 534.07s-2.2 19-8.67 22.6c.05 0 14.45-4.08 8.67-22.6zm-32.47 1.7s8 3.9 6.12 6.62-6.12-6.62-6.12-6.62zm0 7.8s5.1 5.27 4.08 7.14-4.08-7.14-4.08-7.14zm41.13-43.68s2 3.4 2.18 5.6-2.18-5.6-2.18-5.6zm0-4.58s1-.85 3.56 0-3.56 0-3.56 0zm-9.82 99.33a23.57 23.57 0 0 1-12.42-1.59l-2.15 5.48-.23-2.54c.35-2.13 1-4.4 2.38-5a20.57 20.57 0 0 0 12.42 3.65zm-34.84 7.15s10.45 2.2 13.38 1.78zm1.07 2.73s4.46-.2 6.7.7zm.5 1.84a39 39 0 0 0 6.18.83zm-.2 23.4c.2-.13 8.93-2.16 10-.7zm0 2.68s7.6-.9 7.78 0-7.78 0-7.78 0zm0 2.42s8.1-1.66 9-1.27-9 1.27-9 1.27zm.33 57.12l-9.18 6.3.14-1.83a25.17 25.17 0 0 1 4.7-7.67c2.07-.53 3.38 0 4.2.94a22.3 22.3 0 0 0 .15 2.25z" class="B"/><path d="M442 697.63a22.79 22.79 0 0 0-1.91 9.37 14.45 14.45 0 0 1-2 7.55 7.27 7.27 0 0 1-.64.92s-6.38 0-8.6-1.9a2.17 2.17 0 0 1-.59-.71c-1.28-2.55 2.48-12.3 2.48-12.3a27.07 27.07 0 0 1 6-11.53c7.18-1.85 5.27 8.6 5.27 8.6z" class="C"/><path d="M438.14 714.55a7.27 7.27 0 0 1-.64.92c0 0-6.38 0-8.6-1.9 1.1-3.63 4.6-14.62 6.24-12.75s2.64 10.16 3 13.73z" class="B"/><path d="M437.26 701.5l-.44 16.48h2.14s.34-14.44 1.3-16.46-3-.02-3-.02z" class="C"/><path d="M463.86 702.85s-9.37-8.85-8.42-9.55a4.43 4.43 0 0 0 .75-2c1.8-.32 4.88.44 7.46 7.63.06 2.05.2 3.92.2 3.92z" class="B"/><path d="M465.26 712.73a1.3 1.3 0 0 1-.23.07 65.22 65.22 0 0 1-7.43 0 1.61 1.61 0 0 1-1.56-1.6v-2.16c-.1-2.5-.42-5.5-1.3-6.18-1.6-1.2-2.86-5.38 0-10.64 0 0 5.48-4.18 9.43 8.4 0 0 .38 3.6 2.1 4.87s-.24 6.87-1 7.25z" class="C"/><path d="M465.03 712.8a65.22 65.22 0 0 1-7.43 0 1.61 1.61 0 0 1-1.56-1.6v-2.16c.7-3 1.68-6.18 3-6.9-.1-.01 3.78-.45 6 10.65z" class="B"/><path d="M455.38 701.77l1.02 13.7h1.3V700.6l-2.33 1.16z" class="C"/><path d="M458.57 463.86a23.38 23.38 0 0 0-10.46 3.36 4.34 4.34 0 0 0-2 2 6.64 6.64 0 0 0-.16 2.44c.1 7-7.73 12.35-7.48 19.37.1 2.8 1.5 5.38 1.75 8.16.43 4.63-2.3 8.9-4.94 12.74a10.53 10.53 0 0 0 7.45-2.47 56.47 56.47 0 0 1 1 28.48h3.76a2.9 2.9 0 0 1 1.1.14 2.61 2.61 0 0 1 .87.65c3.5 3.5 5.87 8.66 4.52 13.44l8-3a24 24 0 0 0 5.53-2.63 8 8 0 0 0 3.41-4.92c.2-1.22.15-2.7 1.15-3.4a6.49 6.49 0 0 1 1.58-.58c2.2-.78 3.17-3.32 3.6-5.6a32 32 0 0 0 .51-8.52c-.35-4.77-1.76-9.62-.6-14.27.66-2.6 2.12-5 2.24-7.75.2-4.45-3.3-8.3-3.8-12.72-.36-3.08.75-6.2.4-9.3a10 10 0 0 0-5.25-7.58c-1-.5-2.06-.85-3-1.4-2.22-1.3-3.63-3.6-5.64-5.2s-5.37-2.2-6.88-.12z" class="B"/><path d="M458.57 463.35a23.38 23.38 0 0 0-10.46 3.36 4.34 4.34 0 0 0-2 2 6.64 6.64 0 0 0-.16 2.44c.1 7-7.73 12.35-7.48 19.37.1 2.8 1.5 5.4 1.75 8.16.43 4.64-2.3 8.9-4.94 12.74a10.53 10.53 0 0 0 7.49-2.44 56.47 56.47 0 0 1 1 28.48h3.76a2.9 2.9 0 0 1 1.1.14 2.61 2.61 0 0 1 .87.65c3.5 3.5 5.87 8.66 4.52 13.44l8-3a24 24 0 0 0 5.53-2.63 8 8 0 0 0 3.41-4.92c.2-1.22.15-2.7 1.15-3.4a6.49 6.49 0 0 1 1.58-.58c2.2-.78 3.17-3.32 3.6-5.6a32 32 0 0 0 .51-8.52c-.35-4.77-1.76-9.62-.6-14.27.66-2.6 2.12-5.05 2.24-7.75.2-4.45-3.3-8.3-3.8-12.72-.36-3.08.75-6.2.4-9.3a10 10 0 0 0-5.25-7.58c-1-.5-2.06-.85-3-1.4-2.22-1.3-3.63-3.6-5.64-5.2s-5.37-2.2-6.88-.12z" fill="#a26565"/><g class="B"><path d="M445.97 469.44v.47c-.01-.15 0-.3 0-.47zm29.68 16.34a43.09 43.09 0 0 0 .45-6.49 42.91 42.91 0 0 0-.45 6.49zm-35.4 10.75c-.23-2.53-1.4-4.9-1.7-7.42a9.18 9.18 0 0 0-.06 1.39c.1 2.76 1.47 5.33 1.74 8.08a10 10 0 0 0 .01-2.05zm37 10.05a17.32 17.32 0 0 0-.42 5.07 15.67 15.67 0 0 1 .42-2.94c.66-2.6 2.12-5.05 2.24-7.75a8.69 8.69 0 0 0-.07-1.44c-.3 2.46-1.57 4.67-2.17 7.06zm-34.48.22a10.63 10.63 0 0 1-6 2.46l-1.43 2.13a10.53 10.53 0 0 0 7.43-2.42 56.42 56.42 0 0 1 2.37 15.26 56.17 56.17 0 0 0-2.37-17.43zm34.58 22.57c-.45 2.3-1.42 4.83-3.62 5.6a6.12 6.12 0 0 0-1.58.59c-1 .7-.94 2.18-1.15 3.4a8 8 0 0 1-3.41 4.92 24 24 0 0 1-5.53 2.63l-7.63 2.86a10.44 10.44 0 0 1-.37 2.27l8-3a24 24 0 0 0 5.53-2.63 8 8 0 0 0 3.41-4.92c.2-1.22.15-2.7 1.15-3.4a6.49 6.49 0 0 1 1.58-.58c2.2-.78 3.17-3.32 3.62-5.6a32.39 32.39 0 0 0 .57-7.22 33.46 33.46 0 0 1-.57 5.09zm-27.8 6.7a2.76 2.76 0 0 0-.87-.65 2.9 2.9 0 0 0-1.1-.14h-3.33l-.43 2.12h3.76a2.9 2.9 0 0 1 1.1.14 2.61 2.61 0 0 1 .87.65 16.12 16.12 0 0 1 4.85 9.55c.43-4.24-1.76-8.6-4.85-11.67z"/><path d="M430.9 549.98s3-1.28 3.72 0-3.72 0-3.72 0zm1.04 2.16s3-1.28 3.72 0-3.72 0-3.72 0z"/></g><path d="M216.6 58.77l.27 2.1 9.13 1.3 1.92-1.32c2.17-1.4 5.8-3.53 8.9-4.13 4.77-.94 20-7.77 15.08-8.22s-4.4.57-4.4.57-5.4-5.3-11-.45c-4.23 3.68-13.54 7.63-17.77 9.32z" class="E"/><path d="M253.04 34.56a15.89 15.89 0 0 1 4.37-1.12 5.36 5.36 0 0 1 4.17 1.39c.6.6 1 1.4 1.54 2 2.78 3 8.18.75 11.53 3.07 2.06 1.42 2.7 4.12 3.43 6.52s2.06 5.05 4.52 5.56a13.41 13.41 0 0 0 3.57-.14 3.5 3.5 0 0 1 3.2 1.18c1.14 1.72-.43 4.62 1.22 5.85 1.47 1.1 4.15-.44 5.18 1.1a2.27 2.27 0 0 1-.35 2.5 17.37 17.37 0 0 0-1.68 2.1 3.19 3.19 0 0 0 3.14 4.66c1-.1 2.15-.7 3.06-.18a2.19 2.19 0 0 1 .92 1.71 4.49 4.49 0 0 1-4 4.75c-1.77.1-3.4-.85-5-1.66s-3.44-1.5-5.1-.83a8.12 8.12 0 0 0-2.05 1.45 22.6 22.6 0 0 1-6.29 3.73c-2 .78-4.35 1.26-6.28.28-2.17-1.1-3.3-3.82-5.6-4.64s-4.93.7-7.13 2-5.15 2.4-7.14.8-1.48-5.2-2.8-7.62a7.41 7.41 0 0 0-2.09-2.3c-1.47-1.14-3.14-2-4.6-3.1a7.71 7.71 0 0 1-3.16-4.42c-.43-2.2.62-4.4 1.8-6.28s2.57-3.75 3-5.94c.28-1.64 0-3.35.37-5a6.14 6.14 0 0 1 4-4.2c1.08-.37 1.28-.28 1.82-1.23a3.93 3.93 0 0 1 2.41-1.97z" fill="#f86d70"/><path d="M289.63 53.7a8.35 8.35 0 0 1 .17 2.93 7.77 7.77 0 0 1-.17-2.93zm4.14 11.05a3.15 3.15 0 0 0-.32 1.07 3.25 3.25 0 0 1 .11-2.71 17.37 17.37 0 0 1 1.68-2.1 3.29 3.29 0 0 0 .49-.95.71.71 0 0 1 .07.09 2.23 2.23 0 0 1-.35 2.5 18.62 18.62 0 0 0-1.68 2.1zm-51.17-2.58c1.47 1.12 3.14 2 4.6 3.1a7.54 7.54 0 0 1 2.09 2.3c1.3 2.42.65 5.9 2.8 7.62s4.95.53 7.14-.8 4.72-2.87 7.13-2 3.42 3.53 5.6 4.64c1.93 1 4.27.5 6.28-.28a22.6 22.6 0 0 0 6.29-3.73 8.12 8.12 0 0 1 2.05-1.45c1.65-.67 3.5 0 5.1.83s3.22 1.77 5 1.66a4.52 4.52 0 0 0 4-4 3.18 3.18 0 0 1 .21.86 4.48 4.48 0 0 1-4 4.75c-1.78.1-3.4-.85-5-1.66s-3.45-1.5-5.1-.83a8.25 8.25 0 0 0-2 1.45 22.74 22.74 0 0 1-6.29 3.73c-2 .78-4.36 1.26-6.28.28-2.18-1.1-3.3-3.82-5.6-4.64s-4.93.7-7.12 2-5.15 2.4-7.14.8c-2.15-1.73-1.5-5.2-2.8-7.62a7.29 7.29 0 0 0-2.09-2.3c-1.46-1.14-3.13-2-4.6-3.1a7.65 7.65 0 0 1-3.15-4.42 5.14 5.14 0 0 1-.1-1.17 8.09 8.09 0 0 0 3.01 3.98z" class="B"/><path d="M246.52 112.32l-3.3.7s3.27 5.37 8.3 1.85-5-2.56-5-2.56z" fill="#4c4981"/><path d="M246.52 112.32l-3.3.7s3.27 5.37 8.3 1.85-5-2.56-5-2.56z" class="B"/><path d="M318.42 162.3s4.6 2.37 8.87 5.12c3.07 2 6 4.12 6.93 5.74 2.28 3.87 13.35 8.05 13.35 8.05l11 8.37c2.6.86 5.1 4 6.14 5.4a12.18 12.18 0 0 1 .49.7l4.4-.57 2.32-3s.6-6.65-4-6.57a6.55 6.55 0 0 1-2.58-.66c-4.92-2.18-11.8-9-11.8-9s-11.7-14.63-15.2-15.1a5.74 5.74 0 0 1-1.1-.28c-3.56-1.25-8.66-5.84-8.66-5.84zm-45.4 42.28c1.16 7 6.5 20.44 8.2 23.24 2.12 3.47 3.24 10.4 3.24 10.4l.62 4.82a5.75 5.75 0 0 0 .69 1.93 11 11 0 0 0 .61 1l8.82-2.7s-.5-2-1.28-4.36-1.93-5.25-3-6.33c-2.15-2.12-2.48-9.58-2.48-9.58s-1.8-14.36-2.34-16.16a24.56 24.56 0 0 1-1-5.3 44.89 44.89 0 0 1-.15-3.3 68 68 0 0 0-1.39-10.66l-10.3 1.87-.27 11.5a7.7 7.7 0 0 0 .02 3.65z" class="E"/><path d="M364.7 194.98l.5.7 4.4-.57 2.32-3s.6-6.65-4-6.57a6.55 6.55 0 0 1-2.58-.66c-.37 2 1.86 3.64 1.86 3.64s.92.67.7 3.8c-.13 2.13-2.02 2.58-3.2 2.66z" class="B"/><path d="M364.22 195.4c.3 1.07 3.07 2.65 5 3.63l1.84.9c.45.22 2.78-2.38 3.1-4.47s5.9-8.62 5.9-8.62a23.39 23.39 0 0 0 2.07-8.16c.2-2.85-1-3.07-2.37-2.43a9.48 9.48 0 0 0-2.65 2.08 7 7 0 0 1-3.42 1.77 16.76 16.76 0 0 0-4.94 2.11c-1.35.87-2.66 1.93-2.9 2.87-.5 2.05 1.83 3.8 1.83 3.8s.92.68.7 3.8-4.2 2.63-4.16 2.73z" class="H"/><path d="M369.22 199.04l1.84.9c.45.22 2.78-2.38 3.1-4.47s5.9-8.62 5.9-8.62a23.39 23.39 0 0 0 2.07-8.16c.2-2.85-1-3.07-2.37-2.43-.23 2.26-.8 6.65-2 8.94-1.34 2.72-6.98 11.47-8.53 13.84zm-83.36 45.72a1.3 1.3 0 0 1-.08.17 11 11 0 0 0 .61 1l8.82-2.7-1.28-4.36c-3.5-1-8.5 5.13-8.5 5.13z" class="B"/><path d="M285.3 251.33s7.35 2.58 10.67 2.18c2.5-.3 2.62-1.47 2.45-3.87l-.18-2.68c-.17-4.25-1.88-5.1-1.88-5.1-2.8-7.35-10.87 2.5-10.87 2.5l.43.8a8.76 8.76 0 0 0-.83 4 11.37 11.37 0 0 0 .21 2.16z" class="H"/><path d="M285.3 251.33s7.35 2.58 10.67 2.18c2.5-.3 2.62-1.47 2.45-3.87a7.77 7.77 0 0 1-6 1.73 23.76 23.76 0 0 1-7.33-2.19 11.37 11.37 0 0 0 .21 2.15z" class="B"/><path d="M248.77 72.84l2.86 12.6.58 2.6 5.33.67 5.48.7 6-2.17s1.67-5.67.3-9.93a6.27 6.27 0 0 0-2.76-3.64 5.6 5.6 0 0 1-1.15-.9 4.8 4.8 0 0 1-1-1.37 5.8 5.8 0 0 1-.52-2c-.3-3.4 1.85-7.1 1.85-7.1s-12.66-4.32-11.67-1.53c.64 1.8-1.14 5-2.47 6.94l-1.3 1.82z" class="E"/><circle cx="260.22" cy="57.02" r="10.99" class="B"/><circle cx="260.16" cy="56.61" r="10.99" class="E"/><path d="M249.6 114.62c.52 2.42 2.9 6.23 2.9 6.23l15.34 3.77 11-11.44v-.07c-.34-1.07-4.53-14.6-1.5-17.94s2-13.24 2-13.24-5.48-6.3-6.58-7.83-8.22-2.72-8.22-2.72l1 1.37a13.84 13.84 0 0 1 1.75 3.72 5.54 5.54 0 0 1-.15 4 4.8 4.8 0 0 0-.37 1c-1.2 5.25-6.66 4.52-8.84 4-.56-.14-.9-.26-.9-.26l-8.5.28s1.5 25.86 1.14 27.92a3 3 0 0 0-.07 1.21z" class="H"/><path d="M248.45 86.83l9.52-1.25h-.18l-.9-.25-8.5.28.07 1.22zm10.67 35.67l4.13 1 6.5-.85 1.7-1.77-12.32 1.6zm6.86 1.7l1.87.46.77-.8-2.64.34z" fill="#925978"/><path d="M249.6 114.62l4.7.37 12.64-.47v-13.2a19 19 0 0 0-5.09-3.36c-2.2-.76-4.8-3.1-4.3-9.26 0-.35.06-.72.1-1.1a15 15 0 0 0 .11-2.07 11.1 11.1 0 0 0-3.5-8.14l-.2-.16-2.06-9.58a2.32 2.32 0 0 0-.41.05c-.72 1.08-1.3 1.82-1.3 1.82l-1.52 3.33 2.86 12.6-3.28.1s1.5 25.86 1.14 27.92a3 3 0 0 0 .1 1.16z" class="B"/><g class="F"><path d="M253.9 115.04l12.64-.47v-13.2a18.71 18.71 0 0 0-5.06-3.39c-2.33-.8-5.1-3.37-4.2-10.37a11.47 11.47 0 0 0-3.39-10.21l-.2-.16-2.06-9.58a4.48 4.48 0 0 0-3.26 1.87 9.16 9.16 0 0 1-.76 1.06 2 2 0 0 1-2.54.76c-1.33-.6-7.06-3-8.35-.64s-1.53 16.52-1.53 16.52a10.83 10.83 0 0 1 3.72 6.12c.88 4 2.35 4.14 2.35 4.14l1.58 11.6s1.44 2.52.37 3.9"/><path d="M247.6 70.62l2.15 6.45 4.12.36-.2-.16-2.06-9.58a4.48 4.48 0 0 0-3.26 1.87 9.16 9.16 0 0 1-.76 1.06z"/></g><path d="M216.6 58.77l.27 2.1 9.13 1.3 1.92-1.32-7.88-2c-.87-.27-1.46-.5-1.48-.66s.06-.18.2-.3z" class="B"/><path d="M205.88 72.4s10.34 7.85 16.75 9.12c0 0 9 2.67 12.56 5.75l3.9-14.9-2.3-1.63s-2.83 1.75-5.27 1.17-5.12-.92-5.12-.92a40.18 40.18 0 0 0-6.56-1.8c-1.74-.14-1-2.4.7-3.6a5.73 5.73 0 0 1 .73-.41 2.23 2.23 0 0 0 2.93.66 6.52 6.52 0 0 0 1.7-1.58 20.79 20.79 0 0 0 1.92-2.91s-5.4-1.15-8.08-2c-.87-.27-1.46-.5-1.48-.65-.08-.62 4.8-2.57 4.8-2.57s-4.2-2-5.9-.56c0 0 1.1.83.2 1.64s-11.62 9.05-11.62 9.05-5.33 2.6.13 6.13z" class="F"/><path d="M214.77 64.77l5.72.82a5.73 5.73 0 0 1 .73-.41 2.23 2.23 0 0 0 2.93.66 6.52 6.52 0 0 0 1.7-1.58 21.55 21.55 0 0 0 1.57-2.44c0 0-5.4-1.16-8.08-2z" class="B"/><path d="M215.1 64.3l6.1.87a2.23 2.23 0 0 0 2.93.66c1.75-1 3.62-4.5 3.62-4.5l-8.08-2z" class="F"/><path d="M328.57 154.63l-10.15 7.68s4.6 2.37 8.87 5.12c3.74-2.53 7.27-4.86 9.94-7-3.56-1.2-8.66-5.8-8.66-5.8zm-55.55 49.95a34.68 34.68 0 0 0 7.44-1.78s1.87-.4 4.65-1.34l-.15-3.3a68 68 0 0 0-1.39-10.66l-10.3 1.87-.27 11.5a7.7 7.7 0 0 0 .01 3.73z" class="B"/><path d="M254.7 157.9c2.08 3.07 7.73 16.07 7.73 16.07a54.28 54.28 0 0 0 4.3 6.63c2.25 2.84 3.8 9.2 5.52 14.3s-.5 4.13-.26 6.8 9.9-.77 9.9-.77 19.76-4.35 25.8-16.4 30.14-23 35-29.8-1.4-4-1.14-7.66-2.55-6.76-2.55-6.76-9.1-2.56-10.57-4.35-8.74-6.26-8.74-6.26-6.84-3-7.7-4-9-4.24-11.47-4.86-4.92-4.15-4.92-4.15-1.54.2-3.8-2-11.78-4.1-11.78-4.1c-16.27 11.92-27.5 10.22-27.5 10.22l-.26 2.26c-8.63 11.25.4 31.75 2.47 34.8z" class="H"/><path d="M252.24 123.1s14 4.63 27.76-12.48c-16.27 11.92-27.5 10.22-27.5 10.22zm24.18 8l20 28.23c1.13 1-19-28.57-20-28.23zm-8.72-2.12s13.07 20.3 12.8 23c0 .06-12.65-19.44-12.8-23zm-7.6 5.62s2.4 11.35-1.22 17.77zm-5.03.65s-.16 9.8-1.26 11.83zm32-8.75l17.35 6.8-6.35.83-11-7.63zm-34.17-76c.87.57 1.6 1.5 2.62 1.63a4.06 4.06 0 0 0 2.13-.53c1.73-.75 3.7-1.33 5.48-.74 2.55.85 3.95 3.78 6.5 4.65a4.53 4.53 0 0 0 3.8-.42 4.49 4.49 0 0 0 2-2.75 5.7 5.7 0 0 0-2-5.35 11.91 11.91 0 0 0-5.39-2.45c-5.1-1.13-10.4-.75-15.6-.36a2.29 2.29 0 0 0-1.22.32c-.8.6-2.14 3.56-1.86 4.56.42 1.34 3.42.32 3.56 1.44z" class="B"/><path d="M252.85 50.1c.87.57 1.6 1.5 2.63 1.63a4.09 4.09 0 0 0 2.13-.53c1.73-.75 3.7-1.33 5.47-.74 2.55.85 3.95 3.78 6.5 4.65a4.53 4.53 0 0 0 3.8-.42 4.44 4.44 0 0 0 2-2.75 5.69 5.69 0 0 0-2-5.35 11.9 11.9 0 0 0-5.4-2.45c-5.1-1.13-10.4-.75-15.6-.36a2.29 2.29 0 0 0-1.22.32c-.8.6-2.15 3.56-1.86 4.56.38 1.32 3.4.32 3.55 1.44z" fill="#f86d70"/><path d="M320.05 58.2l1.66 6.7 2.16-1.3 11.7-7.07s8.86-.32 9.55-7.45-9.85-.07-10.4.48-1.84 1.5-1.84 1.5l-10.9 6.07z" class="E"/><path d="M320.05 58.2l1.66 6.7 2.16-1.3c-.48-3-1.22-5.83-1.9-6.48zm-57.77 43.87l2.38 14 14.12-3c-.34-1.07-4.53-14.6-1.5-17.94s2-13.24 2-13.24-5.48-6.3-6.58-7.83-8.22-2.72-8.22-2.72a5.8 5.8 0 0 1-.52-2 7.69 7.69 0 0 0-.54 1.49c0 2.56 1 4.3 3.77 5.6l.76.33a31.26 31.26 0 0 0 1.4.5l.23.07c4.55 1.35 5.53 4.07 5.53 4.07a10.37 10.37 0 0 1 2.07 7.34c-.5 4.38-14.9 13.34-14.9 13.34z" class="B"/><path d="M263.1 101.98l2.38 14 15.9-3.32s-.48-5.3-1.6-7.44-.9-10.5-.9-10.5c6.76-7.28 3.2-13.2 3.2-13.2s19.86-3.2 20.2-3.8 7-4.18 7-4.18 7.2-1.84 8.17-2.87a9.82 9.82 0 0 1 1.18-1.07 3.24 3.24 0 0 1 .39-.25l.53 4.6h.2a6.46 6.46 0 0 0 3.2-1.26c1.64-1.26-.43-15-2-15.5a1.9 1.9 0 0 0-.92 0 10 10 0 0 0-3.43 1.85l-.27.22-.1.08s-9 3.53-10.8 5.15-15.78 3.7-15.78 3.7-6.27 1.48-7.08.58-10.38-2.36-11.18-1-3 1.16-3 1.16c-1.58-1.8-2.67-1.1-3.34-.07a7.1 7.1 0 0 0-.84 2c0 2.8 1.22 4.6 4.53 5.93a15.34 15.34 0 0 0 1.63.56c4.55 1.35 5.53 4.07 5.53 4.07a10.41 10.41 0 0 1 2.07 7.35c-.5 4.27-14.9 13.27-14.9 13.27z" class="F"/><path d="M320.03 57.1a1.43 1.43 0 0 1 .51 0c1.6.5 3.66 14.25 2 15.5a6.39 6.39 0 0 1-2.79 1.21h-.24l-.53-4.6a3.24 3.24 0 0 0-.39.25v-.2a12 12 0 0 0-2.26-10.19z" class="B"/><path d="M319 69.3l.53 4.6a6.43 6.43 0 0 0 3.44-1.28c1.64-1.26-.43-15-2-15.5-1.26-.4-3.47 1.18-4.35 1.85A11.92 11.92 0 0 1 319 69.3zm-50.23 7.4l2.28-2.15-6-5.8a7.1 7.1 0 0 0-.84 2c0 2.8 1.2 4.62 4.56 5.94z" class="F"/><path d="M252.77 49.28c.87.57 1.6 1.5 2.62 1.63a4.06 4.06 0 0 0 2.13-.53c1.73-.75 3.7-1.33 5.48-.74 2.55.85 4 3.78 6.5 4.65a4.53 4.53 0 0 0 3.8-.42 4.49 4.49 0 0 0 2-2.75 4.55 4.55 0 0 0 .11-1.22 4.68 4.68 0 0 1 0 2 4.41 4.41 0 0 1-3.36 3.3 4.55 4.55 0 0 1-2.43-.13c-2.55-.87-3.95-3.8-6.5-4.65-1.8-.6-3.75 0-5.48.74a4.06 4.06 0 0 1-2.13.53c-1-.13-1.76-1.06-2.63-1.63-.14-1.12-3.16-.1-3.54-1.44a1.51 1.51 0 0 1 0-.61c.57 1.06 3.27.22 3.43 1.27zm9.37 31.62s-1.27 3.56.34 4.75c0 0-1.76-4.7-2.8-4.6" class="B"/><path d="M340.77 46.28s-8.17 7.06-2.27 8.2 2.27-8.2 2.27-8.2z" class="E"/><path fill="#fff" d="M308.93 52.16l1.57 41.35 45.48-41.35h-47.05z"/><path opacity=".03" d="M308.93 52.16l1.57 41.35 45.48-41.35h-47.05z"/><ellipse cx="847.47" cy="692.13" rx="33.8" ry="6.5" class="D"/><g class="G"><ellipse cx="846.9" cy="689.37" rx="3.94" ry="5.15"/><ellipse cx="846.9" cy="683.07" rx="3.94" ry="5.15"/><ellipse cx="846.9" cy="676.77" rx="3.94" ry="5.15"/><ellipse cx="846.9" cy="670.48" rx="3.94" ry="5.15"/><ellipse cx="846.9" cy="664.18" rx="3.94" ry="5.15"/><ellipse cx="846.9" cy="657.88" rx="3.94" ry="5.15"/><ellipse cx="846.9" cy="651.59" rx="3.94" ry="5.15"/></g><path d="M861.64 608.5a21 21 0 0 0 1.46-2.16l-10.33-1.7 11.18.08a18.82 18.82 0 0 0 .36-14.93l-15 7.78 13.84-10.17a18.85 18.85 0 0 0-33.418 1.658 18.85 18.85 0 0 0 2.278 19.442 19.57 19.57 0 0 0-2.15 3.43l13.43 7-14.32-4.8a18.91 18.91 0 0 0 3 17.71c-6.075 7.728-5.2 18.828 2.03 25.497s18.356 6.67 25.578 0 8.106-17.768 2.03-25.497a18.87 18.87 0 0 0 0-23.31z" class="D"/><path d="M827.97 620.15a18.83 18.83 0 0 0 4 11.66c-6.075 7.728-5.2 18.828 2.03 25.497s18.356 6.67 25.578 0 8.106-17.768 2.03-25.497c2.55-3.2-33.64-13.78-33.64-11.66z" class="B"/></svg>