<?xml version="1.0" encoding="UTF-8"?>
<svg width="999px" height="999px" viewBox="0 0 999 999" version="1.1" xmlns="http://www.w3.org/2000/svg" xmlns:xlink="http://www.w3.org/1999/xlink">
        <g id="Group-2" transform="translate(0.200000, -0.200000)">
            <ellipse id="Oval" fill="#FFFFFF" cx="526.8" cy="520.7" rx="358" ry="315.5"></ellipse>
            <g id="Group" transform="translate(499.500000, 499.500000) scale(-1, 1) rotate(-180.000000) translate(-499.500000, -499.500000) " fill="#E02020" fill-rule="nonzero">
                <path d="M470.4,997.7 C348.2,990.7 233.3,939.2 146.4,852.2 C32,737.8 -19.6,576.9 6.9,416.8 C30.5,273.9 116.8,147 242,71.4 C351.6,5.3 483.7,-16 609.4,12.3 C796.8,54.6 944,201.8 986.3,389.2 C1002.8,462.5 1002.6,538.8 985.7,612.2 C964.8,702.7 918.6,785.9 852.2,852.2 C751.2,953.3 613.2,1005.9 470.4,997.7 Z M536.8,693.2 C576.1,683.3 598,661.4 606,624.3 C607.9,615.4 607.5,588.6 605.3,576.3 C604.3,570.8 603.3,565.1 603.1,563.7 C602.6,561.3 603.3,560.7 610.5,556.8 C620.7,551.4 634.3,541.6 643.8,533 L651.3,526.1 L656.3,529.1 C678.3,542.3 707.7,549.6 727.8,547 C745.8,544.6 758.9,538 771.8,524.8 C794.5,501.6 798.7,477.5 784.7,450 C782.1,444.7 777.5,437.2 774.6,433.3 C767.6,424 752.3,408.8 741.8,400.7 C737.1,397.1 705,375.1 670.4,351.9 C618.5,317 607.3,309.9 606.2,311 C605.5,311.7 589.6,332.6 570.8,357.3 C552.1,382.1 536.4,402.4 536,402.5 C535.6,402.7 534.1,399.9 532.6,396.5 C529.7,389.6 497.7,320.5 497.2,319.9 C496.6,319.2 306,395.2 297.6,399.5 C259.6,419 233.5,448.5 224,482.8 C221.6,491.3 221.3,494.1 221.3,508.8 C221.3,527 222.5,535 228,551.1 C238.1,581.4 255.8,598.7 286.8,608.6 C311.7,616.6 349.5,617 384.1,609.7 C389.6,608.6 394.1,607.8 394.2,608 C394.4,608.2 396.4,611.9 398.8,616.3 C410.3,637.8 430.3,661.4 447.8,674.2 C464.8,686.7 480.5,693.3 500.3,696.2 C508,697.3 526.6,695.8 536.8,693.2 Z" id="Shape"></path>
                <path d="M493.3,660.7 C462,656.1 433.9,627.9 415.2,582.3 C413.3,577.6 411.4,574.4 410.6,574.5 C409.9,574.5 403.6,576.2 396.7,578.1 C333.8,595.6 286,585.9 269.8,552.3 C259.3,530.5 256.2,504.9 261.8,485 C268.6,460.8 287.5,439.4 314.4,425.6 C324.8,420.2 482.7,357.5 484.2,358.1 C484.8,358.4 489.3,367.3 494.2,377.9 C499.2,388.6 506.4,404.1 510.4,412.3 L517.7,427.3 L515.7,430.3 C511.9,436 504.5,451.3 502.1,458.3 C490.6,491.9 496.9,522.7 520.2,546.2 C535.7,561.9 547.5,567.8 565.1,568.6 C578,569.2 577.2,567.8 577.2,588.8 C577.2,605.1 575.5,613.6 569.7,625.1 C565.6,633.1 553.5,645.2 544.8,650.1 C536.4,654.8 522.3,659.4 512.5,660.7 C503.7,661.9 501.8,661.9 493.3,660.7 Z" id="Path"></path>
                <path d="M564.8,543.2 C556.6,541 551.2,537.4 541.2,527.4 C526.4,512.5 521.1,499.7 522,480.3 C522.6,468.2 525.9,457.4 532.7,445.8 C535.2,441.4 554,415.9 574.3,389.2 C594.7,362.4 611.8,339.8 612.4,339 C613.3,337.7 621.4,342.8 661.9,369.9 C688.6,387.7 714,404.6 718.3,407.5 C744.4,424.6 763.3,448.5 765.7,467.4 C767.5,481.7 762.8,495 751.8,507 C735.2,525.2 716.2,529.7 690.8,521.6 C681.8,518.7 666.4,510.7 657.2,504.1 L649.4,498.5 L643.1,505.6 C636,513.5 623.3,524.5 614.3,530.5 C596,542.8 579.2,547.1 564.8,543.2 Z" id="Path"></path>
            </g>
        </g>
    </svg>