<?xml version="1.0" encoding="UTF-8"?>
<svg width="1000px" height="1000px" viewBox="0 0 1000 1000" version="1.1" xmlns="http://www.w3.org/2000/svg" xmlns:xlink="http://www.w3.org/1999/xlink">
    <!-- Generator: Sketch 59 (86127) - https://sketch.com -->
    <title>mim-logo</title>
    <desc>Created with Sketch.</desc>
    <g id="Page-1" stroke="none" stroke-width="1" fill="none" fill-rule="evenodd">
        <g id="mim-logo">
            <rect id="Fontam.com" fill="#171722" x="0" y="0" width="1000" height="1000"></rect>
            <path d="M150,537.333333 C223.377704,563 282.778702,615.5 338.685524,671.5 C343.344426,626 358.485857,587.5 386.439268,559.5 C386.439268,559.5 456.322795,515.166667 497.088186,502.333333 C401.580699,468.5 392.262895,494.166667 382.945092,474.333333 C405.074875,420.666667 405.074875,447.5 438.851913,391.5 C544.84193,372.833333 704.409318,397.333333 735.856905,434.666667 C750.998336,452.166667 720.715474,463.833333 684.608985,515.166667 C626.372712,524.5 451.663894,606.166667 395.757072,628.333333 C391.09817,662.166667 389.933444,694.833333 391.09817,727.5 C437.687188,775.333333 484.276206,822 537.853577,850 C620.549085,706.5 804.575707,628.333333 850,461.5 C761.480865,306.333333 611.231281,255 462.146423,150 C359.650582,279.5 276.955075,427.666667 150,537.333333 Z" id="Fontam-Logo" fill="#FFFFFF"></path>
        </g>
    </g>
</svg>