<?xml version="1.0" encoding="UTF-8"?>
<svg width="600px" height="505px" viewBox="0 0 600 505" version="1.1" xmlns="http://www.w3.org/2000/svg" xmlns:xlink="http://www.w3.org/1999/xlink">

    <g id="Page-1" stroke="none" stroke-width="1" fill="none" fill-rule="evenodd">
        <g id="Fill-1-Copy-3" transform="translate(-200.000000, -288.000000)" fill="#888888">
            <path d="M200,471.193277 L494.117647,792.201681 L389.07563,478.756303 C327.731092,485.478992 264.705882,486.319328 200,471.193277 Z M200,465.310924 C258.823529,456.067227 326.05042,459.428571 384.87395,465.310924 L321.848739,306.487395 L200,465.310924 Z M327.731092,303.12605 L398.319328,446.823529 L494.957983,288 L327.731092,303.12605 Z M414.285714,480.436975 L500,792.201681 L585.714286,480.436975 C527.731092,488 472.268908,488 414.285714,480.436975 Z M415.12605,465.310924 C464.705882,459.428571 530.252101,458.588235 584.87395,465.310924 L500,289.680672 L415.12605,465.310924 Z M505.042017,288 L601.680672,446.823529 L672.268908,303.12605 L505.042017,288 Z M505.882353,792.201681 L800,471.193277 C735.294118,486.319328 672.268908,485.478992 610.92437,478.756303 L505.882353,792.201681 Z M615.12605,465.310924 C673.94958,459.428571 741.176471,456.067227 800,465.310924 L678.151261,306.487395 L615.12605,465.310924 Z"></path>
        </g>
    </g>
</svg>