<?xml version="1.0" encoding="UTF-8"?>
<svg width="301px" height="301px" viewBox="0 0 301 301" version="1.1" xmlns="http://www.w3.org/2000/svg" xmlns:xlink="http://www.w3.org/1999/xlink">
    <!-- Generator: Sketch 59 (86127) - https://sketch.com -->
    <title>Fill-1</title>
    <desc>Created with Sketch.</desc>
    <g id="Page-1" stroke="none" stroke-width="1" fill="none" fill-rule="evenodd">
        <g id="asfine" transform="translate(-10.000000, -11.000000)" fill="#999999" fill-rule="nonzero">
            <g id="author" transform="translate(161.000000, 161.500000) rotate(-4.000000) translate(-161.000000, -161.500000) translate(11.000000, 11.000000)">
                <path d="M0,150 C0,67.3076923 67.3076923,0 150,0 C232.692308,0 300,67.3076923 300,150 C300,233.653846 232.692308,300.961538 150,300.961538 C126.923077,300.961538 105.769231,296.153846 86.5384615,286.538462 C96.1538462,281.730769 104.807692,277.884615 113.461538,274.038462 C147.115385,260.576923 154.807692,283.653846 186.538462,225 C265.384615,78.8461538 170.192308,-4.80769231 138.461538,53.8461538 C125,78.8461538 100,110.576923 102.884615,141.346154 C105.769231,169.230769 136.538462,180.769231 150.961538,177.884615 C166.346154,175 191.346154,177.884615 146.153846,218.269231 C130.769231,231.730769 99.0384615,254.807692 69.2307692,276.923077 C27.8846154,250.961538 0,203.846154 0,150 Z" id="Fill-1"></path>
            </g>
        </g>
    </g>
</svg>