<?xml version="1.0" encoding="UTF-8"?>
<svg width="650px" height="653px" viewBox="0 0 650 653" version="1.1" xmlns="http://www.w3.org/2000/svg" xmlns:xlink="http://www.w3.org/1999/xlink">

    <g id="Page-1" stroke="none" stroke-width="1" fill="none" fill-rule="evenodd">
        <g id="Fill-1-Copy-2" transform="translate(-175.000000, -174.000000)" fill="#888888" fill-rule="nonzero">
            <path d="M175,499 C175,319.833333 320.833333,174 500,174 C679.166667,174 825,319.833333 825,499 C825,680.25 679.166667,826.083332 500,826.083332 C450,826.083332 404.166667,815.666666 362.5,794.833334 C383.333333,784.416666 402.083333,776.083333 420.833332,767.750001 C493.750001,738.583333 510.416666,788.583333 579.166668,661.5 C750,344.833333 543.750001,163.583333 475,290.666667 C445.833333,344.833333 391.666667,413.583333 397.916666,480.25 C404.166667,540.666666 470.833334,565.666667 502.083332,559.416666 C535.416667,553.166667 589.583334,559.416666 491.666666,646.916667 C458.333334,676.083333 389.583333,726.083333 325,774 C235.416667,717.749999 175,615.666667 175,499 Z"></path>
        </g>
    </g>
</svg>